<svg width="24" height="24" viewBox="0 0 24 24" fill="none" xmlns="http://www.w3.org/2000/svg">
<path d="M21.625 18.75L19.8 16.925L20.8 7H11.25L11 5H16V1H18V5H23L21.625 18.75ZM20.475 23.3L0.675 3.5L2.1 2.075L21.9 21.875L20.475 23.3ZM1 19V17H16V19H1ZM2 23C1.71667 23 1.47917 22.9042 1.2875 22.7125C1.09583 22.5208 1 22.2833 1 22V21H16V22C16 22.2833 15.9042 22.5208 15.7125 22.7125C15.5208 22.9042 15.2833 23 15 23H2ZM9.05 9.025V11.025C8.96667 11.025 8.875 11.0208 8.775 11.0125C8.675 11.0042 8.58333 11 8.5 11C7.51667 11 6.5875 11.1667 5.7125 11.5C4.8375 11.8333 4.15833 12.3333 3.675 13H13.025L15.025 15H1C1 12.9833 1.77917 11.4792 3.3375 10.4875C4.89583 9.49583 6.61667 9 8.5 9C8.58333 9 8.675 9.00417 8.775 9.0125C8.875 9.02083 8.96667 9.025 9.05 9.025Z" fill="#6E5D0E"/>
</svg>
