<svg width="116" height="116" viewBox="0 0 116 116" fill="none" xmlns="http://www.w3.org/2000/svg">
<path d="M112.616 48.0918L90.2627 55.583C89.2961 55.9052 88.5104 56.4893 87.9062 57.335C87.3021 58.1807 87 59.1277 87 60.1748V82.167C86.9999 86.1946 85.5899 89.6181 82.7705 92.4375C79.9511 95.2568 76.5277 96.667 72.5 96.667H24.167C20.1392 96.667 16.715 95.2569 13.8955 92.4375C11.0762 89.6182 9.66707 86.1946 9.66699 82.167V58H77.4541C77.8569 55.2611 78.9446 52.8647 80.7168 50.8105C82.4889 48.7565 84.6637 47.2865 87.2412 46.4004L109.596 38.9082L112.616 48.0918ZM19.333 82.167C19.3331 83.5362 19.7964 84.6841 20.7227 85.6104C21.649 86.5367 22.7975 87 24.167 87H72.5C73.8694 87 75.017 86.5366 75.9434 85.6104C76.8697 84.684 77.3329 83.5363 77.333 82.167V67.667H19.333V82.167ZM21.75 14.5C21.1056 17.5609 21.0053 20.0579 21.4482 21.9912C21.8913 23.9245 23.0388 26.0198 24.8916 28.2754C27.9526 31.9809 29.9061 35.2634 30.752 38.123C31.5977 40.9827 31.618 44.386 30.8125 48.333H21.3877C22.5154 45.4331 22.6969 42.8551 21.9316 40.5996C21.1664 38.3441 19.8566 36.0885 18.0039 33.833C15.3457 30.6109 13.5939 27.5696 12.748 24.71C11.9023 21.8503 11.7613 18.447 12.3252 14.5H21.75ZM41.083 14.5C40.4386 17.5609 40.3383 20.058 40.7812 21.9912C41.2243 23.9245 42.3718 26.0198 44.2246 28.2754C47.2857 31.9809 49.2391 35.2633 50.085 38.123C50.9308 40.9827 50.951 44.3859 50.1455 48.333H40.7207C41.8484 45.4331 42.0502 42.8551 41.3252 40.5996C40.6002 38.3442 39.3107 36.0885 37.458 33.833C34.7998 30.6109 33.0277 27.5696 32.1416 24.71C31.2556 21.8503 31.0943 18.447 31.6582 14.5H41.083ZM60.417 14.5C59.7726 17.5608 59.6713 20.0579 60.1143 21.9912C60.5573 23.9245 61.7058 26.0198 63.5586 28.2754C66.6195 31.9808 68.5731 35.2634 69.4189 38.123C70.2647 40.9826 70.285 44.386 69.4795 48.333H60.0537C61.1814 45.4331 61.3832 42.8551 60.6582 40.5996C59.9332 38.3442 58.6447 36.0884 56.792 33.833C54.1337 30.6108 52.3607 27.5697 51.4746 24.71C50.5886 21.8504 50.4274 18.447 50.9912 14.5H60.417ZM105.148 6.55859L111.476 8.03223L110.86 14.8447L115.167 20L110.86 25.1553L111.476 31.9688L105.148 33.4414L101.81 39.333L95.833 36.6641L89.8574 39.333L86.5186 33.4414L80.1904 31.9688L80.8057 25.1553L76.5 20L80.8057 14.8447L80.1904 8.03223L86.5186 6.55859L89.8574 0.666992L95.833 3.33691L101.81 0.666992L105.148 6.55859ZM95.833 7.3877L91.2637 5.3623L88.8027 9.78125L83.9697 10.8857L84.4092 16.041L81.1572 20L84.4092 23.8672L83.9697 29.1143L88.8027 30.2188L91.3516 34.6377L95.833 32.6123L100.403 34.6377L102.863 30.2188L107.697 29.0225L107.258 23.8672L110.509 20L107.258 16.041L107.697 10.8857L102.863 9.78125L100.315 5.3623L95.833 7.3877ZM103.918 16.1338L93.9883 26.5361L87.748 20L90.209 17.4219L93.9883 21.2891L101.458 13.4639L103.918 16.1338Z" fill="#FAE287"/>
</svg>
