<svg width="24" height="24" viewBox="0 0 24 24" fill="none" xmlns="http://www.w3.org/2000/svg">
<path d="M23.2998 9.9502L18.6748 11.5C18.4749 11.5667 18.3125 11.6874 18.1875 11.8623C18.0625 12.0373 18 12.2335 18 12.4502V17C18 17.8333 17.7083 18.5417 17.125 19.125C16.5417 19.7083 15.8333 20 15 20H5C4.16667 20 3.45833 19.7083 2.875 19.125C2.29167 18.5417 2 17.8333 2 17V12H16.0254C16.1087 11.4334 16.3335 10.9377 16.7002 10.5127C17.0668 10.0877 17.5165 9.78294 18.0498 9.59961L22.6748 8.0498L23.2998 9.9502ZM4 17C4 17.2833 4.09544 17.5212 4.28711 17.7129C4.47878 17.9046 4.71667 18 5 18H15C15.2833 18 15.5212 17.9046 15.7129 17.7129C15.9046 17.5212 16 17.2833 16 17V14H4V17ZM4.5 3C4.36669 3.63324 4.34588 4.14983 4.4375 4.5498C4.52916 4.94979 4.76708 5.38296 5.15039 5.84961C5.78372 6.61628 6.1873 7.29603 6.3623 7.8877C6.53727 8.47934 6.54165 9.18339 6.375 10H4.4248C4.6581 9.4001 4.69535 8.867 4.53711 8.40039C4.37878 7.93372 4.10794 7.46667 3.72461 7C3.1747 6.3334 2.81268 5.70391 2.6377 5.1123C2.46273 4.52067 2.43315 3.8166 2.5498 3H4.5ZM8.5 3C8.36669 3.63324 8.34588 4.14983 8.4375 4.5498C8.52916 4.94979 8.76708 5.38296 9.15039 5.84961C9.78372 6.61628 10.1873 7.29603 10.3623 7.8877C10.5373 8.47934 10.5417 9.18339 10.375 10H8.4248C8.65809 9.40013 8.69969 8.86699 8.5498 8.40039C8.3998 7.93372 8.13333 7.46667 7.75 7C7.2 6.33333 6.83372 5.70397 6.65039 5.1123C6.46708 4.52066 6.43315 3.81662 6.5498 3H8.5ZM12.5 3C12.3667 3.63324 12.3459 4.14983 12.4375 4.5498C12.5292 4.94979 12.7671 5.38296 13.1504 5.84961C13.7837 6.61628 14.1873 7.29603 14.3623 7.8877C14.5373 8.47934 14.5417 9.18339 14.375 10H12.4248C12.6581 9.40013 12.6997 8.86699 12.5498 8.40039C12.3998 7.93372 12.1333 7.46667 11.75 7C11.2 6.33333 10.8337 5.70397 10.6504 5.1123C10.4671 4.52066 10.4331 3.81662 10.5498 3H12.5ZM20.9277 1.21875L22.2363 1.52344L22.1094 2.93359L23 4L22.1094 5.06641L22.2363 6.47656L20.9277 6.78125L20.2363 8L19 7.44727L17.7637 8L17.0723 6.78125L15.7637 6.47656L15.8906 5.06641L15 4L15.8906 2.93359L15.7637 1.52344L17.0723 1.21875L17.7637 0L19 0.552734L20.2363 0L20.9277 1.21875ZM19 1.39062L18.0547 0.97168L17.5459 1.88574L16.5459 2.11426L16.6367 3.18066L15.9639 4L16.6367 4.7998L16.5459 5.88574L17.5459 6.11426L18.0723 7.02832L19 6.60938L19.9453 7.02832L20.4541 6.11426L21.4541 5.86621L21.3633 4.7998L22.0361 4L21.3633 3.18066L21.4541 2.11426L20.4541 1.88574L19.9277 0.97168L19 1.39062ZM20.6729 3.2002L18.6182 5.35254L17.3271 4L17.8359 3.4668L18.6182 4.2666L20.1641 2.64746L20.6729 3.2002Z" fill="#6E5D0E"/>
</svg>
